G04 MADE WITH FRITZING*
G04 WWW.FRITZING.ORG*
G04 DOUBLE SIDED*
G04 HOLES PLATED*
G04 CONTOUR ON CENTER OF CONTOUR VECTOR*
%ASAXBY*%
%FSLAX23Y23*%
%MOIN*%
%OFA0B0*%
%SFA1.0B1.0*%
%ADD10C,0.066000*%
%ADD11C,0.078000*%
%ADD12C,0.070000*%
%ADD13C,0.075000*%
%ADD14C,0.082000*%
%ADD15R,0.082000X0.082000*%
%ADD16C,0.024000*%
%LNCOPPER1*%
G90*
G70*
G54D10*
X1549Y1944D03*
X1602Y1891D03*
X1549Y1944D03*
X1602Y1891D03*
G54D11*
X149Y244D03*
X249Y244D03*
X349Y244D03*
X449Y244D03*
X549Y244D03*
X649Y244D03*
X749Y244D03*
X849Y244D03*
X949Y244D03*
X1049Y244D03*
X1149Y244D03*
X1249Y244D03*
X149Y844D03*
X249Y844D03*
X349Y844D03*
X449Y844D03*
X549Y844D03*
X649Y844D03*
X749Y844D03*
X849Y844D03*
X949Y844D03*
X1049Y844D03*
X1149Y844D03*
X1249Y844D03*
X1349Y1544D03*
X1349Y1444D03*
X1349Y1344D03*
X1349Y1244D03*
X1349Y1144D03*
X349Y1744D03*
X249Y1744D03*
G54D12*
X3008Y244D03*
X2908Y244D03*
X2808Y244D03*
X2708Y244D03*
X2608Y244D03*
X2508Y244D03*
X2408Y244D03*
X2308Y244D03*
X2208Y244D03*
X2108Y244D03*
X2008Y244D03*
X1908Y244D03*
G54D13*
X849Y1744D03*
X749Y1744D03*
X649Y1744D03*
G54D14*
X1449Y1844D03*
X1151Y1844D03*
G54D13*
X688Y975D03*
X688Y1375D03*
G54D15*
X1450Y1844D03*
G54D16*
X1349Y545D02*
X150Y443D01*
D02*
X1349Y1045D02*
X1349Y545D01*
D02*
X1150Y1045D02*
X1349Y1045D01*
D02*
X1150Y1346D02*
X1150Y1045D01*
D02*
X150Y443D02*
X149Y275D01*
D02*
X1319Y1345D02*
X1150Y1346D01*
D02*
X447Y1443D02*
X449Y875D01*
D02*
X1319Y1444D02*
X447Y1443D01*
D02*
X248Y1545D02*
X249Y875D01*
D02*
X1319Y1544D02*
X248Y1545D01*
D02*
X2650Y2045D02*
X48Y2045D01*
D02*
X48Y2045D02*
X49Y648D01*
D02*
X49Y648D02*
X945Y641D01*
D02*
X945Y641D02*
X948Y814D01*
D02*
X2707Y276D02*
X2650Y2045D01*
D02*
X2449Y544D02*
X2502Y275D01*
D02*
X2049Y552D02*
X2449Y544D01*
D02*
X2049Y552D02*
X2049Y1545D01*
D02*
X2049Y1545D02*
X1379Y1544D01*
D02*
X2012Y275D02*
X2049Y552D01*
D02*
X1150Y443D02*
X1149Y275D01*
D02*
X1449Y441D02*
X1150Y443D01*
D02*
X1447Y1142D02*
X1449Y441D01*
D02*
X1379Y1144D02*
X1447Y1142D01*
D02*
X1552Y241D02*
X1279Y244D01*
D02*
X1549Y1244D02*
X1552Y241D01*
D02*
X1379Y1244D02*
X1549Y1244D01*
D02*
X1549Y1643D02*
X1248Y1643D01*
D02*
X1248Y1643D02*
X876Y1737D01*
D02*
X1596Y1865D02*
X1549Y1643D01*
D02*
X1530Y1925D02*
X1471Y1867D01*
D02*
X1120Y1834D02*
X876Y1753D01*
G04 End of Copper1*
M02*