G04 MADE WITH FRITZING*
G04 WWW.FRITZING.ORG*
G04 DOUBLE SIDED*
G04 HOLES PLATED*
G04 CONTOUR ON CENTER OF CONTOUR VECTOR*
%ASAXBY*%
%FSLAX23Y23*%
%MOIN*%
%OFA0B0*%
%SFA1.0B1.0*%
%ADD10C,0.066000*%
%ADD11C,0.078000*%
%ADD12C,0.070000*%
%ADD13C,0.075000*%
%ADD14C,0.082000*%
%ADD15R,0.082000X0.082000*%
%ADD16C,0.024000*%
%LNCOPPER0*%
G90*
G70*
G54D10*
X1549Y1944D03*
X1602Y1891D03*
G54D11*
X149Y244D03*
X249Y244D03*
X349Y244D03*
X449Y244D03*
X549Y244D03*
X649Y244D03*
X749Y244D03*
X849Y244D03*
X949Y244D03*
X1049Y244D03*
X1149Y244D03*
X1249Y244D03*
X149Y844D03*
X249Y844D03*
X349Y844D03*
X449Y844D03*
X549Y844D03*
X649Y844D03*
X749Y844D03*
X849Y844D03*
X949Y844D03*
X1049Y844D03*
X1149Y844D03*
X1249Y844D03*
X1349Y1544D03*
X1349Y1444D03*
X1349Y1344D03*
X1349Y1244D03*
X1349Y1144D03*
X349Y1744D03*
X249Y1744D03*
G54D12*
X3008Y244D03*
X2908Y244D03*
X2808Y244D03*
X2708Y244D03*
X2608Y244D03*
X2508Y244D03*
X2408Y244D03*
X2308Y244D03*
X2208Y244D03*
X2108Y244D03*
X2008Y244D03*
X1908Y244D03*
G54D13*
X849Y1744D03*
X749Y1744D03*
X649Y1744D03*
G54D14*
X1449Y1844D03*
X1151Y1844D03*
G54D13*
X688Y975D03*
X688Y1375D03*
G54D15*
X1450Y1844D03*
G54D16*
X747Y443D02*
X749Y275D01*
D02*
X1448Y444D02*
X747Y443D01*
D02*
X1450Y844D02*
X1448Y444D01*
D02*
X950Y1246D02*
X1450Y844D01*
D02*
X548Y1246D02*
X950Y1246D01*
D02*
X548Y1843D02*
X548Y1246D01*
D02*
X151Y1843D02*
X548Y1843D01*
D02*
X149Y875D02*
X151Y1843D01*
D02*
X249Y1714D02*
X249Y875D01*
D02*
X355Y1715D02*
X542Y874D01*
D02*
X2947Y1443D02*
X1379Y1444D01*
D02*
X3006Y275D02*
X2947Y1443D01*
D02*
X548Y146D02*
X549Y214D01*
D02*
X2249Y146D02*
X548Y146D01*
D02*
X2292Y218D02*
X2249Y146D01*
D02*
X447Y45D02*
X448Y214D01*
D02*
X2749Y45D02*
X447Y45D01*
D02*
X2799Y215D02*
X2749Y45D01*
D02*
X48Y1943D02*
X49Y544D01*
D02*
X49Y544D02*
X449Y544D01*
D02*
X449Y544D02*
X449Y814D01*
D02*
X680Y948D02*
X657Y873D01*
D02*
X744Y1716D02*
X692Y1404D01*
D02*
X650Y1846D02*
X947Y1846D01*
D02*
X947Y1846D02*
X1325Y1562D01*
D02*
X649Y1773D02*
X650Y1846D01*
D02*
X48Y1943D02*
X1522Y1944D01*
G04 End of Copper0*
M02*