G04 MADE WITH FRITZING*
G04 WWW.FRITZING.ORG*
G04 DOUBLE SIDED*
G04 HOLES PLATED*
G04 CONTOUR ON CENTER OF CONTOUR VECTOR*
%ASAXBY*%
%FSLAX23Y23*%
%MOIN*%
%OFA0B0*%
%SFA1.0B1.0*%
%ADD10C,0.076000*%
%ADD11C,0.088000*%
%ADD12C,0.080000*%
%ADD13C,0.085000*%
%ADD14C,0.092000*%
%ADD15R,0.092000X0.092000*%
%LNMASK1*%
G90*
G70*
G54D10*
X1549Y1944D03*
X1602Y1891D03*
X1549Y1944D03*
X1602Y1891D03*
G54D11*
X149Y244D03*
X249Y244D03*
X349Y244D03*
X449Y244D03*
X549Y244D03*
X649Y244D03*
X749Y244D03*
X849Y244D03*
X949Y244D03*
X1049Y244D03*
X1149Y244D03*
X1249Y244D03*
X149Y844D03*
X249Y844D03*
X349Y844D03*
X449Y844D03*
X549Y844D03*
X649Y844D03*
X749Y844D03*
X849Y844D03*
X949Y844D03*
X1049Y844D03*
X1149Y844D03*
X1249Y844D03*
X1349Y1544D03*
X1349Y1444D03*
X1349Y1344D03*
X1349Y1244D03*
X1349Y1144D03*
X349Y1744D03*
X249Y1744D03*
G54D12*
X3008Y244D03*
X2908Y244D03*
X2808Y244D03*
X2708Y244D03*
X2608Y244D03*
X2508Y244D03*
X2408Y244D03*
X2308Y244D03*
X2208Y244D03*
X2108Y244D03*
X2008Y244D03*
X1908Y244D03*
G54D13*
X849Y1744D03*
X749Y1744D03*
X649Y1744D03*
G54D14*
X1449Y1844D03*
X1151Y1844D03*
G54D13*
X688Y975D03*
X688Y1375D03*
G54D15*
X1450Y1844D03*
G04 End of Mask1*
M02*