; NON-PLATED HOLES START AT T1
; THROUGH (PLATED) HOLES START AT T100
M48
INCH
T100C0.038000
T101C0.042000
T102C0.040000
T103C0.031496
T104C0.035000
%
T100
X013487Y014444
X013487Y011444
X003487Y002444
X003487Y017444
X012487Y008444
X008487Y008444
X011487Y008444
X005487Y008444
X013487Y013444
X012487Y002444
X008487Y002444
X004487Y008444
X011487Y002444
X002487Y008444
X005487Y002444
X001487Y008444
X004487Y002444
X002487Y002444
X013487Y015444
X001487Y002444
X009487Y008444
X002487Y017444
X013487Y012444
X007487Y008444
X010487Y008444
X006487Y008444
X009487Y002444
X007487Y002444
X003487Y008444
X010487Y002444
X006487Y002444
T101
X014487Y018444
X011507Y018444
T102
X026080Y002444
X027080Y002444
X020080Y002444
X019080Y002444
X030080Y002444
X028080Y002444
X021080Y002444
X029080Y002444
X022080Y002444
X023080Y002444
X024080Y002444
X025080Y002444
T103
X016018Y018908
X015487Y019444
T104
X006877Y013752
X008487Y017444
X007487Y017444
X006487Y017444
X006877Y009752
T00
M30
