; NON-PLATED HOLES START AT T1
; THROUGH (PLATED) HOLES START AT T100
M48
INCH
T100C0.042000
T101C0.040000
T102C0.031496
T103C0.035000
T104C0.038000
T105C0.039370
%
T100
X018092Y021656
X021072Y021656
T101
X023665Y000656
X024665Y000656
X025665Y000656
X026665Y000656
X027665Y000656
X020665Y000656
X019665Y000656
X030665Y000656
X028665Y000656
X021665Y000656
X029665Y000656
X022665Y000656
T102
X023604Y022120
X023072Y022656
T103
X006072Y018656
X008072Y008656
X008072Y012656
X002072Y018656
X016072Y020656
X015072Y020656
X014072Y020656
T104
X014072Y009656
X003072Y000656
X014072Y013656
X014072Y010656
X012072Y006656
X008072Y006656
X011072Y006656
X005072Y006656
X012072Y000656
X008072Y000656
X004072Y006656
X014072Y015656
X011072Y000656
X002072Y006656
X014072Y012656
X005072Y000656
X004072Y000656
X002072Y000656
X013072Y006656
X009072Y006656
X014072Y014656
X007072Y006656
X010072Y006656
X006072Y006656
X013072Y000656
X014072Y011656
X009072Y000656
X007072Y000656
X003072Y006656
X010072Y000656
X006072Y000656
X014072Y016656
T105
X007072Y018656
X010072Y020656
X007072Y020656
X010072Y018656
T00
M30
