G04 MADE WITH FRITZING*
G04 WWW.FRITZING.ORG*
G04 DOUBLE SIDED*
G04 HOLES PLATED*
G04 CONTOUR ON CENTER OF CONTOUR VECTOR*
%ASAXBY*%
%FSLAX23Y23*%
%MOIN*%
%OFA0B0*%
%SFA1.0B1.0*%
%ADD10C,0.075000*%
%ADD11C,0.082000*%
%ADD12C,0.059370*%
%ADD13C,0.066000*%
%ADD14C,0.078000*%
%ADD15C,0.070000*%
%ADD16R,0.082000X0.082000*%
%ADD17C,0.024000*%
%ADD18R,0.001000X0.001000*%
%LNCOPPER0*%
G90*
G70*
G54D10*
X1607Y2066D03*
X1507Y2066D03*
X1407Y2066D03*
G54D11*
X2107Y2166D03*
X1809Y2166D03*
G54D10*
X807Y866D03*
X807Y1266D03*
X207Y1866D03*
X607Y1866D03*
G54D12*
X707Y2066D03*
X1007Y2066D03*
X707Y1866D03*
X1007Y1866D03*
G54D13*
X2307Y2266D03*
X2360Y2212D03*
G54D14*
X1407Y1666D03*
X1407Y1566D03*
X1407Y1466D03*
X1407Y1366D03*
X1407Y1266D03*
X1407Y1166D03*
X1407Y1066D03*
X1407Y966D03*
X207Y66D03*
X307Y66D03*
X407Y66D03*
X507Y66D03*
X607Y66D03*
X707Y66D03*
X807Y66D03*
X907Y66D03*
X1007Y66D03*
X1107Y66D03*
X1207Y66D03*
X1307Y66D03*
X207Y666D03*
X307Y666D03*
X407Y666D03*
X507Y666D03*
X607Y666D03*
X707Y666D03*
X807Y666D03*
X907Y666D03*
X1007Y666D03*
X1107Y666D03*
X1207Y666D03*
X1307Y666D03*
G54D15*
X3067Y66D03*
X2967Y66D03*
X2867Y66D03*
X2767Y66D03*
X2667Y66D03*
X2567Y66D03*
X2467Y66D03*
X2367Y66D03*
X2267Y66D03*
X2167Y66D03*
X2067Y66D03*
X1967Y66D03*
G54D16*
X2108Y2166D03*
G54D17*
X3011Y1566D02*
X1437Y1566D01*
D02*
X3065Y97D02*
X3011Y1566D01*
D02*
X2411Y166D02*
X604Y166D01*
D02*
X2379Y94D02*
X2411Y166D01*
D02*
X604Y166D02*
X606Y96D01*
D02*
X2858Y96D02*
X2811Y262D01*
D02*
X507Y269D02*
X507Y96D01*
D02*
X2811Y262D02*
X507Y269D01*
D02*
X604Y966D02*
X607Y696D01*
D02*
X611Y1366D02*
X604Y966D01*
D02*
X988Y1841D02*
X611Y1366D01*
D02*
X676Y1866D02*
X636Y1866D01*
D02*
X210Y1837D02*
X305Y696D01*
D02*
X115Y2077D02*
X107Y366D01*
D02*
X107Y366D02*
X507Y366D01*
D02*
X676Y2066D02*
X115Y2077D01*
D02*
X507Y366D02*
X507Y636D01*
D02*
X794Y840D02*
X721Y693D01*
D02*
X1487Y2045D02*
X1307Y1862D01*
D02*
X1307Y1862D02*
X826Y1288D01*
D02*
X1411Y2166D02*
X1707Y2166D01*
D02*
X1707Y1862D02*
X1432Y1682D01*
D02*
X1707Y2166D02*
X1707Y1862D01*
D02*
X1408Y2094D02*
X1411Y2166D01*
D02*
X115Y2077D02*
X107Y2262D01*
D02*
X107Y2262D02*
X2280Y2266D01*
G54D18*
X677Y2095D02*
X736Y2095D01*
X977Y2095D02*
X1036Y2095D01*
X677Y2094D02*
X736Y2094D01*
X977Y2094D02*
X1036Y2094D01*
X677Y2093D02*
X736Y2093D01*
X977Y2093D02*
X1036Y2093D01*
X677Y2092D02*
X736Y2092D01*
X977Y2092D02*
X1036Y2092D01*
X677Y2091D02*
X736Y2091D01*
X977Y2091D02*
X1036Y2091D01*
X677Y2090D02*
X736Y2090D01*
X977Y2090D02*
X1036Y2090D01*
X677Y2089D02*
X736Y2089D01*
X977Y2089D02*
X1036Y2089D01*
X677Y2088D02*
X736Y2088D01*
X977Y2088D02*
X1036Y2088D01*
X677Y2087D02*
X736Y2087D01*
X977Y2087D02*
X1036Y2087D01*
X677Y2086D02*
X736Y2086D01*
X977Y2086D02*
X1036Y2086D01*
X677Y2085D02*
X701Y2085D01*
X712Y2085D02*
X736Y2085D01*
X977Y2085D02*
X1001Y2085D01*
X1012Y2085D02*
X1036Y2085D01*
X677Y2084D02*
X698Y2084D01*
X715Y2084D02*
X736Y2084D01*
X977Y2084D02*
X998Y2084D01*
X1015Y2084D02*
X1036Y2084D01*
X677Y2083D02*
X696Y2083D01*
X717Y2083D02*
X736Y2083D01*
X977Y2083D02*
X996Y2083D01*
X1017Y2083D02*
X1036Y2083D01*
X677Y2082D02*
X695Y2082D01*
X718Y2082D02*
X736Y2082D01*
X977Y2082D02*
X995Y2082D01*
X1018Y2082D02*
X1036Y2082D01*
X677Y2081D02*
X694Y2081D01*
X720Y2081D02*
X736Y2081D01*
X977Y2081D02*
X994Y2081D01*
X1020Y2081D02*
X1036Y2081D01*
X677Y2080D02*
X692Y2080D01*
X721Y2080D02*
X736Y2080D01*
X977Y2080D02*
X992Y2080D01*
X1021Y2080D02*
X1036Y2080D01*
X677Y2079D02*
X692Y2079D01*
X722Y2079D02*
X736Y2079D01*
X977Y2079D02*
X991Y2079D01*
X1022Y2079D02*
X1036Y2079D01*
X677Y2078D02*
X691Y2078D01*
X723Y2078D02*
X736Y2078D01*
X977Y2078D02*
X991Y2078D01*
X1023Y2078D02*
X1036Y2078D01*
X677Y2077D02*
X690Y2077D01*
X723Y2077D02*
X736Y2077D01*
X977Y2077D02*
X990Y2077D01*
X1023Y2077D02*
X1036Y2077D01*
X677Y2076D02*
X689Y2076D01*
X724Y2076D02*
X736Y2076D01*
X977Y2076D02*
X989Y2076D01*
X1024Y2076D02*
X1036Y2076D01*
X677Y2075D02*
X689Y2075D01*
X724Y2075D02*
X736Y2075D01*
X977Y2075D02*
X989Y2075D01*
X1024Y2075D02*
X1036Y2075D01*
X677Y2074D02*
X688Y2074D01*
X725Y2074D02*
X736Y2074D01*
X977Y2074D02*
X988Y2074D01*
X1025Y2074D02*
X1036Y2074D01*
X677Y2073D02*
X688Y2073D01*
X725Y2073D02*
X736Y2073D01*
X977Y2073D02*
X988Y2073D01*
X1025Y2073D02*
X1036Y2073D01*
X677Y2072D02*
X688Y2072D01*
X726Y2072D02*
X736Y2072D01*
X977Y2072D02*
X987Y2072D01*
X1026Y2072D02*
X1036Y2072D01*
X677Y2071D02*
X687Y2071D01*
X726Y2071D02*
X736Y2071D01*
X977Y2071D02*
X987Y2071D01*
X1026Y2071D02*
X1036Y2071D01*
X677Y2070D02*
X687Y2070D01*
X726Y2070D02*
X736Y2070D01*
X977Y2070D02*
X987Y2070D01*
X1026Y2070D02*
X1036Y2070D01*
X677Y2069D02*
X687Y2069D01*
X726Y2069D02*
X736Y2069D01*
X977Y2069D02*
X987Y2069D01*
X1026Y2069D02*
X1036Y2069D01*
X677Y2068D02*
X687Y2068D01*
X727Y2068D02*
X736Y2068D01*
X977Y2068D02*
X987Y2068D01*
X1027Y2068D02*
X1036Y2068D01*
X677Y2067D02*
X687Y2067D01*
X727Y2067D02*
X736Y2067D01*
X977Y2067D02*
X986Y2067D01*
X1027Y2067D02*
X1036Y2067D01*
X677Y2066D02*
X686Y2066D01*
X727Y2066D02*
X736Y2066D01*
X977Y2066D02*
X986Y2066D01*
X1027Y2066D02*
X1036Y2066D01*
X677Y2065D02*
X687Y2065D01*
X727Y2065D02*
X736Y2065D01*
X977Y2065D02*
X986Y2065D01*
X1027Y2065D02*
X1036Y2065D01*
X677Y2064D02*
X687Y2064D01*
X727Y2064D02*
X736Y2064D01*
X977Y2064D02*
X987Y2064D01*
X1027Y2064D02*
X1036Y2064D01*
X677Y2063D02*
X687Y2063D01*
X727Y2063D02*
X736Y2063D01*
X977Y2063D02*
X987Y2063D01*
X1026Y2063D02*
X1036Y2063D01*
X677Y2062D02*
X687Y2062D01*
X726Y2062D02*
X736Y2062D01*
X977Y2062D02*
X987Y2062D01*
X1026Y2062D02*
X1036Y2062D01*
X677Y2061D02*
X687Y2061D01*
X726Y2061D02*
X736Y2061D01*
X977Y2061D02*
X987Y2061D01*
X1026Y2061D02*
X1036Y2061D01*
X677Y2060D02*
X687Y2060D01*
X726Y2060D02*
X736Y2060D01*
X977Y2060D02*
X987Y2060D01*
X1026Y2060D02*
X1036Y2060D01*
X677Y2059D02*
X688Y2059D01*
X725Y2059D02*
X736Y2059D01*
X977Y2059D02*
X988Y2059D01*
X1025Y2059D02*
X1036Y2059D01*
X677Y2058D02*
X688Y2058D01*
X725Y2058D02*
X736Y2058D01*
X977Y2058D02*
X988Y2058D01*
X1025Y2058D02*
X1036Y2058D01*
X677Y2057D02*
X689Y2057D01*
X725Y2057D02*
X736Y2057D01*
X977Y2057D02*
X989Y2057D01*
X1025Y2057D02*
X1036Y2057D01*
X677Y2056D02*
X689Y2056D01*
X724Y2056D02*
X736Y2056D01*
X977Y2056D02*
X989Y2056D01*
X1024Y2056D02*
X1036Y2056D01*
X677Y2055D02*
X690Y2055D01*
X723Y2055D02*
X736Y2055D01*
X977Y2055D02*
X990Y2055D01*
X1023Y2055D02*
X1036Y2055D01*
X677Y2054D02*
X691Y2054D01*
X723Y2054D02*
X736Y2054D01*
X977Y2054D02*
X991Y2054D01*
X1023Y2054D02*
X1036Y2054D01*
X677Y2053D02*
X691Y2053D01*
X722Y2053D02*
X736Y2053D01*
X977Y2053D02*
X991Y2053D01*
X1022Y2053D02*
X1036Y2053D01*
X677Y2052D02*
X692Y2052D01*
X721Y2052D02*
X736Y2052D01*
X977Y2052D02*
X992Y2052D01*
X1021Y2052D02*
X1036Y2052D01*
X677Y2051D02*
X693Y2051D01*
X720Y2051D02*
X736Y2051D01*
X977Y2051D02*
X993Y2051D01*
X1020Y2051D02*
X1036Y2051D01*
X677Y2050D02*
X695Y2050D01*
X719Y2050D02*
X736Y2050D01*
X977Y2050D02*
X995Y2050D01*
X1019Y2050D02*
X1036Y2050D01*
X677Y2049D02*
X696Y2049D01*
X717Y2049D02*
X736Y2049D01*
X977Y2049D02*
X996Y2049D01*
X1017Y2049D02*
X1036Y2049D01*
X677Y2048D02*
X698Y2048D01*
X715Y2048D02*
X736Y2048D01*
X977Y2048D02*
X998Y2048D01*
X1015Y2048D02*
X1036Y2048D01*
X677Y2047D02*
X701Y2047D01*
X712Y2047D02*
X736Y2047D01*
X977Y2047D02*
X1001Y2047D01*
X1012Y2047D02*
X1036Y2047D01*
X677Y2046D02*
X736Y2046D01*
X977Y2046D02*
X1036Y2046D01*
X677Y2045D02*
X736Y2045D01*
X977Y2045D02*
X1036Y2045D01*
X677Y2044D02*
X736Y2044D01*
X977Y2044D02*
X1036Y2044D01*
X677Y2043D02*
X736Y2043D01*
X977Y2043D02*
X1036Y2043D01*
X677Y2042D02*
X736Y2042D01*
X977Y2042D02*
X1036Y2042D01*
X677Y2041D02*
X736Y2041D01*
X977Y2041D02*
X1036Y2041D01*
X677Y2040D02*
X736Y2040D01*
X977Y2040D02*
X1036Y2040D01*
X677Y2039D02*
X736Y2039D01*
X977Y2039D02*
X1036Y2039D01*
X677Y2038D02*
X736Y2038D01*
X977Y2038D02*
X1036Y2038D01*
X677Y2037D02*
X736Y2037D01*
X977Y2037D02*
X1036Y2037D01*
X677Y1895D02*
X736Y1895D01*
X977Y1895D02*
X1036Y1895D01*
X677Y1894D02*
X736Y1894D01*
X977Y1894D02*
X1036Y1894D01*
X677Y1893D02*
X736Y1893D01*
X977Y1893D02*
X1036Y1893D01*
X677Y1892D02*
X736Y1892D01*
X977Y1892D02*
X1036Y1892D01*
X677Y1891D02*
X736Y1891D01*
X977Y1891D02*
X1036Y1891D01*
X677Y1890D02*
X736Y1890D01*
X977Y1890D02*
X1036Y1890D01*
X677Y1889D02*
X736Y1889D01*
X977Y1889D02*
X1036Y1889D01*
X677Y1888D02*
X736Y1888D01*
X977Y1888D02*
X1036Y1888D01*
X677Y1887D02*
X736Y1887D01*
X977Y1887D02*
X1036Y1887D01*
X677Y1886D02*
X736Y1886D01*
X977Y1886D02*
X1036Y1886D01*
X677Y1885D02*
X701Y1885D01*
X712Y1885D02*
X736Y1885D01*
X977Y1885D02*
X1001Y1885D01*
X1012Y1885D02*
X1036Y1885D01*
X677Y1884D02*
X698Y1884D01*
X715Y1884D02*
X736Y1884D01*
X977Y1884D02*
X998Y1884D01*
X1015Y1884D02*
X1036Y1884D01*
X677Y1883D02*
X696Y1883D01*
X717Y1883D02*
X736Y1883D01*
X977Y1883D02*
X996Y1883D01*
X1017Y1883D02*
X1036Y1883D01*
X677Y1882D02*
X695Y1882D01*
X718Y1882D02*
X736Y1882D01*
X977Y1882D02*
X995Y1882D01*
X1018Y1882D02*
X1036Y1882D01*
X677Y1881D02*
X694Y1881D01*
X720Y1881D02*
X736Y1881D01*
X977Y1881D02*
X994Y1881D01*
X1020Y1881D02*
X1036Y1881D01*
X677Y1880D02*
X692Y1880D01*
X721Y1880D02*
X736Y1880D01*
X977Y1880D02*
X992Y1880D01*
X1021Y1880D02*
X1036Y1880D01*
X677Y1879D02*
X691Y1879D01*
X722Y1879D02*
X736Y1879D01*
X977Y1879D02*
X991Y1879D01*
X1022Y1879D02*
X1036Y1879D01*
X677Y1878D02*
X691Y1878D01*
X723Y1878D02*
X736Y1878D01*
X977Y1878D02*
X991Y1878D01*
X1023Y1878D02*
X1036Y1878D01*
X677Y1877D02*
X690Y1877D01*
X723Y1877D02*
X736Y1877D01*
X977Y1877D02*
X990Y1877D01*
X1023Y1877D02*
X1036Y1877D01*
X677Y1876D02*
X689Y1876D01*
X724Y1876D02*
X736Y1876D01*
X977Y1876D02*
X989Y1876D01*
X1024Y1876D02*
X1036Y1876D01*
X677Y1875D02*
X689Y1875D01*
X725Y1875D02*
X736Y1875D01*
X977Y1875D02*
X989Y1875D01*
X1024Y1875D02*
X1036Y1875D01*
X677Y1874D02*
X688Y1874D01*
X725Y1874D02*
X736Y1874D01*
X977Y1874D02*
X988Y1874D01*
X1025Y1874D02*
X1036Y1874D01*
X677Y1873D02*
X688Y1873D01*
X725Y1873D02*
X736Y1873D01*
X977Y1873D02*
X988Y1873D01*
X1025Y1873D02*
X1036Y1873D01*
X677Y1872D02*
X687Y1872D01*
X726Y1872D02*
X736Y1872D01*
X977Y1872D02*
X987Y1872D01*
X1026Y1872D02*
X1036Y1872D01*
X677Y1871D02*
X687Y1871D01*
X726Y1871D02*
X736Y1871D01*
X977Y1871D02*
X987Y1871D01*
X1026Y1871D02*
X1036Y1871D01*
X677Y1870D02*
X687Y1870D01*
X726Y1870D02*
X736Y1870D01*
X977Y1870D02*
X987Y1870D01*
X1026Y1870D02*
X1036Y1870D01*
X677Y1869D02*
X687Y1869D01*
X726Y1869D02*
X736Y1869D01*
X977Y1869D02*
X987Y1869D01*
X1026Y1869D02*
X1036Y1869D01*
X677Y1868D02*
X687Y1868D01*
X727Y1868D02*
X736Y1868D01*
X977Y1868D02*
X987Y1868D01*
X1027Y1868D02*
X1036Y1868D01*
X677Y1867D02*
X687Y1867D01*
X727Y1867D02*
X736Y1867D01*
X977Y1867D02*
X986Y1867D01*
X1027Y1867D02*
X1036Y1867D01*
X677Y1866D02*
X686Y1866D01*
X727Y1866D02*
X736Y1866D01*
X977Y1866D02*
X986Y1866D01*
X1027Y1866D02*
X1036Y1866D01*
X677Y1865D02*
X687Y1865D01*
X727Y1865D02*
X736Y1865D01*
X977Y1865D02*
X986Y1865D01*
X1027Y1865D02*
X1036Y1865D01*
X677Y1864D02*
X687Y1864D01*
X727Y1864D02*
X736Y1864D01*
X977Y1864D02*
X987Y1864D01*
X1027Y1864D02*
X1036Y1864D01*
X677Y1863D02*
X687Y1863D01*
X727Y1863D02*
X736Y1863D01*
X977Y1863D02*
X987Y1863D01*
X1026Y1863D02*
X1036Y1863D01*
X677Y1862D02*
X687Y1862D01*
X726Y1862D02*
X736Y1862D01*
X977Y1862D02*
X987Y1862D01*
X1026Y1862D02*
X1036Y1862D01*
X677Y1861D02*
X687Y1861D01*
X726Y1861D02*
X736Y1861D01*
X977Y1861D02*
X987Y1861D01*
X1026Y1861D02*
X1036Y1861D01*
X677Y1860D02*
X687Y1860D01*
X726Y1860D02*
X736Y1860D01*
X977Y1860D02*
X987Y1860D01*
X1026Y1860D02*
X1036Y1860D01*
X677Y1859D02*
X688Y1859D01*
X725Y1859D02*
X736Y1859D01*
X977Y1859D02*
X988Y1859D01*
X1025Y1859D02*
X1036Y1859D01*
X677Y1858D02*
X688Y1858D01*
X725Y1858D02*
X736Y1858D01*
X977Y1858D02*
X988Y1858D01*
X1025Y1858D02*
X1036Y1858D01*
X677Y1857D02*
X689Y1857D01*
X725Y1857D02*
X736Y1857D01*
X977Y1857D02*
X989Y1857D01*
X1024Y1857D02*
X1036Y1857D01*
X677Y1856D02*
X689Y1856D01*
X724Y1856D02*
X736Y1856D01*
X977Y1856D02*
X989Y1856D01*
X1024Y1856D02*
X1036Y1856D01*
X677Y1855D02*
X690Y1855D01*
X723Y1855D02*
X736Y1855D01*
X977Y1855D02*
X990Y1855D01*
X1023Y1855D02*
X1036Y1855D01*
X677Y1854D02*
X691Y1854D01*
X723Y1854D02*
X736Y1854D01*
X977Y1854D02*
X991Y1854D01*
X1023Y1854D02*
X1036Y1854D01*
X677Y1853D02*
X691Y1853D01*
X722Y1853D02*
X736Y1853D01*
X977Y1853D02*
X991Y1853D01*
X1022Y1853D02*
X1036Y1853D01*
X677Y1852D02*
X692Y1852D01*
X721Y1852D02*
X736Y1852D01*
X977Y1852D02*
X992Y1852D01*
X1021Y1852D02*
X1036Y1852D01*
X677Y1851D02*
X693Y1851D01*
X720Y1851D02*
X736Y1851D01*
X977Y1851D02*
X993Y1851D01*
X1020Y1851D02*
X1036Y1851D01*
X677Y1850D02*
X695Y1850D01*
X719Y1850D02*
X736Y1850D01*
X977Y1850D02*
X995Y1850D01*
X1019Y1850D02*
X1036Y1850D01*
X677Y1849D02*
X696Y1849D01*
X717Y1849D02*
X736Y1849D01*
X977Y1849D02*
X996Y1849D01*
X1017Y1849D02*
X1036Y1849D01*
X677Y1848D02*
X698Y1848D01*
X715Y1848D02*
X736Y1848D01*
X977Y1848D02*
X998Y1848D01*
X1015Y1848D02*
X1036Y1848D01*
X677Y1847D02*
X701Y1847D01*
X712Y1847D02*
X736Y1847D01*
X977Y1847D02*
X1001Y1847D01*
X1012Y1847D02*
X1036Y1847D01*
X677Y1846D02*
X736Y1846D01*
X977Y1846D02*
X1036Y1846D01*
X677Y1845D02*
X736Y1845D01*
X977Y1845D02*
X1036Y1845D01*
X677Y1844D02*
X736Y1844D01*
X977Y1844D02*
X1036Y1844D01*
X677Y1843D02*
X736Y1843D01*
X977Y1843D02*
X1036Y1843D01*
X677Y1842D02*
X736Y1842D01*
X977Y1842D02*
X1036Y1842D01*
X677Y1841D02*
X736Y1841D01*
X977Y1841D02*
X1036Y1841D01*
X677Y1840D02*
X736Y1840D01*
X977Y1840D02*
X1036Y1840D01*
X677Y1839D02*
X736Y1839D01*
X977Y1839D02*
X1036Y1839D01*
X677Y1838D02*
X736Y1838D01*
X977Y1838D02*
X1036Y1838D01*
X677Y1837D02*
X736Y1837D01*
X977Y1837D02*
X1036Y1837D01*
D02*
G04 End of Copper0*
M02*