G04 MADE WITH FRITZING*
G04 WWW.FRITZING.ORG*
G04 DOUBLE SIDED*
G04 HOLES PLATED*
G04 CONTOUR ON CENTER OF CONTOUR VECTOR*
%ASAXBY*%
%FSLAX23Y23*%
%MOIN*%
%OFA0B0*%
%SFA1.0B1.0*%
%ADD10C,0.085000*%
%ADD11C,0.092000*%
%ADD12C,0.069370*%
%ADD13C,0.076000*%
%ADD14C,0.088000*%
%ADD15C,0.080000*%
%ADD16R,0.092000X0.092000*%
%ADD17R,0.001000X0.001000*%
%LNMASK1*%
G90*
G70*
G54D10*
X1607Y2066D03*
X1507Y2066D03*
X1407Y2066D03*
G54D11*
X2107Y2166D03*
X1809Y2166D03*
G54D10*
X807Y866D03*
X807Y1266D03*
X207Y1866D03*
X607Y1866D03*
G54D12*
X707Y2066D03*
X1007Y2066D03*
X707Y1866D03*
X1007Y1866D03*
X707Y2066D03*
X1007Y2066D03*
X707Y1866D03*
X1007Y1866D03*
G54D13*
X2307Y2266D03*
X2360Y2212D03*
X2307Y2266D03*
X2360Y2212D03*
G54D14*
X1407Y1666D03*
X1407Y1566D03*
X1407Y1466D03*
X1407Y1366D03*
X1407Y1266D03*
X1407Y1166D03*
X1407Y1066D03*
X1407Y966D03*
G54D15*
X3067Y66D03*
X2967Y66D03*
X2867Y66D03*
X2767Y66D03*
X2667Y66D03*
X2567Y66D03*
X2467Y66D03*
X2367Y66D03*
X2267Y66D03*
X2167Y66D03*
X2067Y66D03*
X1967Y66D03*
G54D14*
X207Y666D03*
X307Y666D03*
X407Y666D03*
X507Y666D03*
X607Y666D03*
X707Y666D03*
X807Y666D03*
X907Y666D03*
X1007Y666D03*
X1107Y666D03*
X1207Y666D03*
X1307Y666D03*
X207Y66D03*
X307Y66D03*
X407Y66D03*
X507Y66D03*
X607Y66D03*
X707Y66D03*
X807Y66D03*
X907Y66D03*
X1007Y66D03*
X1107Y66D03*
X1207Y66D03*
X1307Y66D03*
G54D16*
X2108Y2166D03*
G54D17*
X672Y2100D02*
X741Y2100D01*
X972Y2100D02*
X1041Y2100D01*
X672Y2099D02*
X741Y2099D01*
X972Y2099D02*
X1041Y2099D01*
X672Y2098D02*
X741Y2098D01*
X972Y2098D02*
X1041Y2098D01*
X672Y2097D02*
X741Y2097D01*
X972Y2097D02*
X1041Y2097D01*
X672Y2096D02*
X741Y2096D01*
X972Y2096D02*
X1041Y2096D01*
X672Y2095D02*
X741Y2095D01*
X972Y2095D02*
X1041Y2095D01*
X672Y2094D02*
X741Y2094D01*
X972Y2094D02*
X1041Y2094D01*
X672Y2093D02*
X741Y2093D01*
X972Y2093D02*
X1041Y2093D01*
X672Y2092D02*
X741Y2092D01*
X972Y2092D02*
X1041Y2092D01*
X672Y2091D02*
X741Y2091D01*
X972Y2091D02*
X1041Y2091D01*
X672Y2090D02*
X741Y2090D01*
X972Y2090D02*
X1041Y2090D01*
X672Y2089D02*
X741Y2089D01*
X972Y2089D02*
X1041Y2089D01*
X672Y2088D02*
X741Y2088D01*
X972Y2088D02*
X1041Y2088D01*
X672Y2087D02*
X741Y2087D01*
X972Y2087D02*
X1041Y2087D01*
X672Y2086D02*
X741Y2086D01*
X972Y2086D02*
X1041Y2086D01*
X672Y2085D02*
X741Y2085D01*
X972Y2085D02*
X1041Y2085D01*
X672Y2084D02*
X741Y2084D01*
X972Y2084D02*
X1041Y2084D01*
X672Y2083D02*
X741Y2083D01*
X972Y2083D02*
X1041Y2083D01*
X672Y2082D02*
X741Y2082D01*
X972Y2082D02*
X1041Y2082D01*
X672Y2081D02*
X741Y2081D01*
X972Y2081D02*
X1041Y2081D01*
X672Y2080D02*
X702Y2080D01*
X711Y2080D02*
X741Y2080D01*
X972Y2080D02*
X1002Y2080D01*
X1011Y2080D02*
X1041Y2080D01*
X672Y2079D02*
X699Y2079D01*
X714Y2079D02*
X741Y2079D01*
X972Y2079D02*
X999Y2079D01*
X1014Y2079D02*
X1041Y2079D01*
X672Y2078D02*
X698Y2078D01*
X716Y2078D02*
X741Y2078D01*
X972Y2078D02*
X998Y2078D01*
X1015Y2078D02*
X1041Y2078D01*
X672Y2077D02*
X697Y2077D01*
X717Y2077D02*
X741Y2077D01*
X972Y2077D02*
X996Y2077D01*
X1017Y2077D02*
X1041Y2077D01*
X672Y2076D02*
X695Y2076D01*
X718Y2076D02*
X741Y2076D01*
X972Y2076D02*
X995Y2076D01*
X1018Y2076D02*
X1041Y2076D01*
X672Y2075D02*
X695Y2075D01*
X719Y2075D02*
X741Y2075D01*
X972Y2075D02*
X995Y2075D01*
X1019Y2075D02*
X1041Y2075D01*
X672Y2074D02*
X694Y2074D01*
X719Y2074D02*
X741Y2074D01*
X972Y2074D02*
X994Y2074D01*
X1019Y2074D02*
X1041Y2074D01*
X672Y2073D02*
X693Y2073D01*
X720Y2073D02*
X741Y2073D01*
X972Y2073D02*
X993Y2073D01*
X1020Y2073D02*
X1041Y2073D01*
X672Y2072D02*
X693Y2072D01*
X721Y2072D02*
X741Y2072D01*
X972Y2072D02*
X993Y2072D01*
X1021Y2072D02*
X1041Y2072D01*
X672Y2071D02*
X692Y2071D01*
X721Y2071D02*
X741Y2071D01*
X972Y2071D02*
X992Y2071D01*
X1021Y2071D02*
X1041Y2071D01*
X672Y2070D02*
X692Y2070D01*
X721Y2070D02*
X741Y2070D01*
X972Y2070D02*
X992Y2070D01*
X1021Y2070D02*
X1041Y2070D01*
X672Y2069D02*
X692Y2069D01*
X722Y2069D02*
X741Y2069D01*
X972Y2069D02*
X992Y2069D01*
X1021Y2069D02*
X1041Y2069D01*
X672Y2068D02*
X692Y2068D01*
X722Y2068D02*
X741Y2068D01*
X972Y2068D02*
X992Y2068D01*
X1022Y2068D02*
X1041Y2068D01*
X672Y2067D02*
X692Y2067D01*
X722Y2067D02*
X741Y2067D01*
X972Y2067D02*
X991Y2067D01*
X1022Y2067D02*
X1041Y2067D01*
X672Y2066D02*
X691Y2066D01*
X722Y2066D02*
X741Y2066D01*
X972Y2066D02*
X991Y2066D01*
X1022Y2066D02*
X1041Y2066D01*
X672Y2065D02*
X692Y2065D01*
X722Y2065D02*
X741Y2065D01*
X972Y2065D02*
X991Y2065D01*
X1022Y2065D02*
X1041Y2065D01*
X672Y2064D02*
X692Y2064D01*
X722Y2064D02*
X741Y2064D01*
X972Y2064D02*
X992Y2064D01*
X1022Y2064D02*
X1041Y2064D01*
X672Y2063D02*
X692Y2063D01*
X722Y2063D02*
X741Y2063D01*
X972Y2063D02*
X992Y2063D01*
X1021Y2063D02*
X1041Y2063D01*
X672Y2062D02*
X692Y2062D01*
X721Y2062D02*
X741Y2062D01*
X972Y2062D02*
X992Y2062D01*
X1021Y2062D02*
X1041Y2062D01*
X672Y2061D02*
X692Y2061D01*
X721Y2061D02*
X741Y2061D01*
X972Y2061D02*
X992Y2061D01*
X1021Y2061D02*
X1041Y2061D01*
X672Y2060D02*
X693Y2060D01*
X721Y2060D02*
X741Y2060D01*
X972Y2060D02*
X993Y2060D01*
X1021Y2060D02*
X1041Y2060D01*
X672Y2059D02*
X693Y2059D01*
X720Y2059D02*
X741Y2059D01*
X972Y2059D02*
X993Y2059D01*
X1020Y2059D02*
X1041Y2059D01*
X672Y2058D02*
X694Y2058D01*
X720Y2058D02*
X741Y2058D01*
X972Y2058D02*
X994Y2058D01*
X1019Y2058D02*
X1041Y2058D01*
X672Y2057D02*
X695Y2057D01*
X719Y2057D02*
X741Y2057D01*
X972Y2057D02*
X994Y2057D01*
X1019Y2057D02*
X1041Y2057D01*
X672Y2056D02*
X695Y2056D01*
X718Y2056D02*
X741Y2056D01*
X972Y2056D02*
X995Y2056D01*
X1018Y2056D02*
X1041Y2056D01*
X672Y2055D02*
X696Y2055D01*
X717Y2055D02*
X741Y2055D01*
X972Y2055D02*
X996Y2055D01*
X1017Y2055D02*
X1041Y2055D01*
X672Y2054D02*
X698Y2054D01*
X716Y2054D02*
X741Y2054D01*
X972Y2054D02*
X998Y2054D01*
X1016Y2054D02*
X1041Y2054D01*
X672Y2053D02*
X699Y2053D01*
X714Y2053D02*
X741Y2053D01*
X972Y2053D02*
X999Y2053D01*
X1014Y2053D02*
X1041Y2053D01*
X672Y2052D02*
X701Y2052D01*
X712Y2052D02*
X741Y2052D01*
X972Y2052D02*
X1001Y2052D01*
X1012Y2052D02*
X1041Y2052D01*
X672Y2051D02*
X741Y2051D01*
X972Y2051D02*
X1041Y2051D01*
X672Y2050D02*
X741Y2050D01*
X972Y2050D02*
X1041Y2050D01*
X672Y2049D02*
X741Y2049D01*
X972Y2049D02*
X1041Y2049D01*
X672Y2048D02*
X741Y2048D01*
X972Y2048D02*
X1041Y2048D01*
X672Y2047D02*
X741Y2047D01*
X972Y2047D02*
X1041Y2047D01*
X672Y2046D02*
X741Y2046D01*
X972Y2046D02*
X1041Y2046D01*
X672Y2045D02*
X741Y2045D01*
X972Y2045D02*
X1041Y2045D01*
X672Y2044D02*
X741Y2044D01*
X972Y2044D02*
X1041Y2044D01*
X672Y2043D02*
X741Y2043D01*
X972Y2043D02*
X1041Y2043D01*
X672Y2042D02*
X741Y2042D01*
X972Y2042D02*
X1041Y2042D01*
X672Y2041D02*
X741Y2041D01*
X972Y2041D02*
X1041Y2041D01*
X672Y2040D02*
X741Y2040D01*
X972Y2040D02*
X1041Y2040D01*
X672Y2039D02*
X741Y2039D01*
X972Y2039D02*
X1041Y2039D01*
X672Y2038D02*
X741Y2038D01*
X972Y2038D02*
X1041Y2038D01*
X672Y2037D02*
X741Y2037D01*
X972Y2037D02*
X1041Y2037D01*
X672Y2036D02*
X741Y2036D01*
X972Y2036D02*
X1041Y2036D01*
X672Y2035D02*
X741Y2035D01*
X972Y2035D02*
X1041Y2035D01*
X672Y2034D02*
X741Y2034D01*
X972Y2034D02*
X1041Y2034D01*
X672Y2033D02*
X741Y2033D01*
X972Y2033D02*
X1041Y2033D01*
X672Y2032D02*
X741Y2032D01*
X972Y2032D02*
X1041Y2032D01*
X672Y1900D02*
X741Y1900D01*
X972Y1900D02*
X1041Y1900D01*
X672Y1899D02*
X741Y1899D01*
X972Y1899D02*
X1041Y1899D01*
X672Y1898D02*
X741Y1898D01*
X972Y1898D02*
X1041Y1898D01*
X672Y1897D02*
X741Y1897D01*
X972Y1897D02*
X1041Y1897D01*
X672Y1896D02*
X741Y1896D01*
X972Y1896D02*
X1041Y1896D01*
X672Y1895D02*
X741Y1895D01*
X972Y1895D02*
X1041Y1895D01*
X672Y1894D02*
X741Y1894D01*
X972Y1894D02*
X1041Y1894D01*
X672Y1893D02*
X741Y1893D01*
X972Y1893D02*
X1041Y1893D01*
X672Y1892D02*
X741Y1892D01*
X972Y1892D02*
X1041Y1892D01*
X672Y1891D02*
X741Y1891D01*
X972Y1891D02*
X1041Y1891D01*
X672Y1890D02*
X741Y1890D01*
X972Y1890D02*
X1041Y1890D01*
X672Y1889D02*
X741Y1889D01*
X972Y1889D02*
X1041Y1889D01*
X672Y1888D02*
X741Y1888D01*
X972Y1888D02*
X1041Y1888D01*
X672Y1887D02*
X741Y1887D01*
X972Y1887D02*
X1041Y1887D01*
X672Y1886D02*
X741Y1886D01*
X972Y1886D02*
X1041Y1886D01*
X672Y1885D02*
X741Y1885D01*
X972Y1885D02*
X1041Y1885D01*
X672Y1884D02*
X741Y1884D01*
X972Y1884D02*
X1041Y1884D01*
X672Y1883D02*
X741Y1883D01*
X972Y1883D02*
X1041Y1883D01*
X672Y1882D02*
X741Y1882D01*
X972Y1882D02*
X1041Y1882D01*
X672Y1881D02*
X741Y1881D01*
X972Y1881D02*
X1041Y1881D01*
X672Y1880D02*
X702Y1880D01*
X711Y1880D02*
X741Y1880D01*
X972Y1880D02*
X1002Y1880D01*
X1011Y1880D02*
X1041Y1880D01*
X672Y1879D02*
X699Y1879D01*
X714Y1879D02*
X741Y1879D01*
X972Y1879D02*
X999Y1879D01*
X1014Y1879D02*
X1041Y1879D01*
X672Y1878D02*
X698Y1878D01*
X716Y1878D02*
X741Y1878D01*
X972Y1878D02*
X998Y1878D01*
X1015Y1878D02*
X1041Y1878D01*
X672Y1877D02*
X697Y1877D01*
X717Y1877D02*
X741Y1877D01*
X972Y1877D02*
X996Y1877D01*
X1017Y1877D02*
X1041Y1877D01*
X672Y1876D02*
X695Y1876D01*
X718Y1876D02*
X741Y1876D01*
X972Y1876D02*
X995Y1876D01*
X1018Y1876D02*
X1041Y1876D01*
X672Y1875D02*
X695Y1875D01*
X719Y1875D02*
X741Y1875D01*
X972Y1875D02*
X995Y1875D01*
X1019Y1875D02*
X1041Y1875D01*
X672Y1874D02*
X694Y1874D01*
X719Y1874D02*
X741Y1874D01*
X972Y1874D02*
X994Y1874D01*
X1019Y1874D02*
X1041Y1874D01*
X672Y1873D02*
X693Y1873D01*
X720Y1873D02*
X741Y1873D01*
X972Y1873D02*
X993Y1873D01*
X1020Y1873D02*
X1041Y1873D01*
X672Y1872D02*
X693Y1872D01*
X721Y1872D02*
X741Y1872D01*
X972Y1872D02*
X993Y1872D01*
X1021Y1872D02*
X1041Y1872D01*
X672Y1871D02*
X692Y1871D01*
X721Y1871D02*
X741Y1871D01*
X972Y1871D02*
X992Y1871D01*
X1021Y1871D02*
X1041Y1871D01*
X672Y1870D02*
X692Y1870D01*
X721Y1870D02*
X741Y1870D01*
X972Y1870D02*
X992Y1870D01*
X1021Y1870D02*
X1041Y1870D01*
X672Y1869D02*
X692Y1869D01*
X722Y1869D02*
X741Y1869D01*
X972Y1869D02*
X992Y1869D01*
X1021Y1869D02*
X1041Y1869D01*
X672Y1868D02*
X692Y1868D01*
X722Y1868D02*
X741Y1868D01*
X972Y1868D02*
X992Y1868D01*
X1022Y1868D02*
X1041Y1868D01*
X672Y1867D02*
X692Y1867D01*
X722Y1867D02*
X741Y1867D01*
X972Y1867D02*
X991Y1867D01*
X1022Y1867D02*
X1041Y1867D01*
X672Y1866D02*
X691Y1866D01*
X722Y1866D02*
X741Y1866D01*
X972Y1866D02*
X991Y1866D01*
X1022Y1866D02*
X1041Y1866D01*
X672Y1865D02*
X692Y1865D01*
X722Y1865D02*
X741Y1865D01*
X972Y1865D02*
X991Y1865D01*
X1022Y1865D02*
X1041Y1865D01*
X672Y1864D02*
X692Y1864D01*
X722Y1864D02*
X741Y1864D01*
X972Y1864D02*
X992Y1864D01*
X1022Y1864D02*
X1041Y1864D01*
X672Y1863D02*
X692Y1863D01*
X722Y1863D02*
X741Y1863D01*
X972Y1863D02*
X992Y1863D01*
X1021Y1863D02*
X1041Y1863D01*
X672Y1862D02*
X692Y1862D01*
X721Y1862D02*
X741Y1862D01*
X972Y1862D02*
X992Y1862D01*
X1021Y1862D02*
X1041Y1862D01*
X672Y1861D02*
X692Y1861D01*
X721Y1861D02*
X741Y1861D01*
X972Y1861D02*
X992Y1861D01*
X1021Y1861D02*
X1041Y1861D01*
X672Y1860D02*
X693Y1860D01*
X721Y1860D02*
X741Y1860D01*
X972Y1860D02*
X993Y1860D01*
X1021Y1860D02*
X1041Y1860D01*
X672Y1859D02*
X693Y1859D01*
X720Y1859D02*
X741Y1859D01*
X972Y1859D02*
X993Y1859D01*
X1020Y1859D02*
X1041Y1859D01*
X672Y1858D02*
X694Y1858D01*
X719Y1858D02*
X741Y1858D01*
X972Y1858D02*
X994Y1858D01*
X1019Y1858D02*
X1041Y1858D01*
X672Y1857D02*
X695Y1857D01*
X719Y1857D02*
X741Y1857D01*
X972Y1857D02*
X994Y1857D01*
X1019Y1857D02*
X1041Y1857D01*
X672Y1856D02*
X695Y1856D01*
X718Y1856D02*
X741Y1856D01*
X972Y1856D02*
X995Y1856D01*
X1018Y1856D02*
X1041Y1856D01*
X672Y1855D02*
X696Y1855D01*
X717Y1855D02*
X741Y1855D01*
X972Y1855D02*
X996Y1855D01*
X1017Y1855D02*
X1041Y1855D01*
X672Y1854D02*
X698Y1854D01*
X716Y1854D02*
X741Y1854D01*
X972Y1854D02*
X998Y1854D01*
X1016Y1854D02*
X1041Y1854D01*
X672Y1853D02*
X699Y1853D01*
X714Y1853D02*
X741Y1853D01*
X972Y1853D02*
X999Y1853D01*
X1014Y1853D02*
X1041Y1853D01*
X672Y1852D02*
X702Y1852D01*
X712Y1852D02*
X741Y1852D01*
X972Y1852D02*
X1001Y1852D01*
X1012Y1852D02*
X1041Y1852D01*
X672Y1851D02*
X741Y1851D01*
X972Y1851D02*
X1041Y1851D01*
X672Y1850D02*
X741Y1850D01*
X972Y1850D02*
X1041Y1850D01*
X672Y1849D02*
X741Y1849D01*
X972Y1849D02*
X1041Y1849D01*
X672Y1848D02*
X741Y1848D01*
X972Y1848D02*
X1041Y1848D01*
X672Y1847D02*
X741Y1847D01*
X972Y1847D02*
X1041Y1847D01*
X672Y1846D02*
X741Y1846D01*
X972Y1846D02*
X1041Y1846D01*
X672Y1845D02*
X741Y1845D01*
X972Y1845D02*
X1041Y1845D01*
X672Y1844D02*
X741Y1844D01*
X972Y1844D02*
X1041Y1844D01*
X672Y1843D02*
X741Y1843D01*
X972Y1843D02*
X1041Y1843D01*
X672Y1842D02*
X741Y1842D01*
X972Y1842D02*
X1041Y1842D01*
X672Y1841D02*
X741Y1841D01*
X972Y1841D02*
X1041Y1841D01*
X672Y1840D02*
X741Y1840D01*
X972Y1840D02*
X1041Y1840D01*
X672Y1839D02*
X741Y1839D01*
X972Y1839D02*
X1041Y1839D01*
X672Y1838D02*
X741Y1838D01*
X972Y1838D02*
X1041Y1838D01*
X672Y1837D02*
X741Y1837D01*
X972Y1837D02*
X1041Y1837D01*
X672Y1836D02*
X741Y1836D01*
X972Y1836D02*
X1041Y1836D01*
X672Y1835D02*
X741Y1835D01*
X972Y1835D02*
X1041Y1835D01*
X672Y1834D02*
X741Y1834D01*
X972Y1834D02*
X1041Y1834D01*
X672Y1833D02*
X741Y1833D01*
X972Y1833D02*
X1041Y1833D01*
X672Y1832D02*
X741Y1832D01*
X972Y1832D02*
X1041Y1832D01*
D02*
G04 End of Mask1*
M02*